<svg width="112" height="112" viewBox="0 0 112 112" fill="none" xmlns="http://www.w3.org/2000/svg">
<g clip-path="url(#clip0_647_1183)">
<rect x="2" y="2" width="108" height="108" rx="8" fill="white"/>
<g clip-path="url(#clip1_647_1183)">
<path fill-rule="evenodd" clip-rule="evenodd" d="M22.1541 47.295C22.3839 47.6528 23.331 50.8646 23.4702 51.4911L20.8719 51.4685L22.1541 47.295ZM30.6791 43.4372C29.4212 43.8079 29.426 45.1257 29.426 46.526C29.426 48.8022 29.3338 53.0922 29.4293 55.1045C29.541 57.4745 32.1749 57.7173 32.8484 55.8589C33.1252 55.0948 33.0021 50.5862 33.0021 49.5987C33.0021 48.2194 33.0669 46.675 32.9941 45.3151C32.9277 44.0767 32.0826 43.0228 30.6774 43.4356L30.6791 43.4372ZM35.2686 47.1315C33.2709 47.1428 33.2272 49.4028 35.2686 49.5501V54.1736C35.2686 54.9215 35.1795 55.5869 35.5017 56.194C36.1428 57.4049 38.0045 57.2899 38.5209 56.2458C39.0017 55.2744 38.5387 51.3875 38.7572 49.5517C39.8387 49.5517 40.9832 49.5145 40.9508 48.3165C40.9201 47.1137 39.8581 47.1347 38.7362 47.1347C38.7362 46.3852 38.6536 45.9513 39.4485 45.8785C40.1414 45.8137 40.6789 46.0404 40.9913 45.4981C41.5595 44.5089 40.7598 43.6169 39.3643 43.4146C38.1307 43.2365 36.9214 43.489 36.1266 44.0637C35.2216 44.7178 35.2686 46.0873 35.2686 47.1347V47.1315ZM45.9159 49.4433C47.3519 49.1373 47.7339 50.4567 47.8116 51.6692C47.8958 52.9708 47.7533 54.5201 46.4599 54.635C44.9673 54.7677 44.4962 53.6685 44.4298 52.3168C44.3586 50.8857 44.7001 49.7023 45.9159 49.4433ZM48.2422 56.5582C47.4199 56.8286 47.2596 57.2867 45.5274 57.1588C44.5787 57.0876 43.7304 56.7881 43.0521 56.3623C41.8299 55.595 40.8343 54.0797 40.9039 51.9574C40.9735 49.8609 41.9659 48.3991 43.125 47.6285C43.7855 47.1898 44.65 46.8968 45.5954 46.8207C47.3438 46.6782 47.6708 47.274 48.3378 47.4116C49.0549 46.3415 50.7402 46.7349 51.2032 47.8519L51.1319 56.283C50.6495 57.1685 49.5972 57.3903 48.8234 57.0196C48.5061 56.8674 48.5013 56.746 48.239 56.5615L48.2422 56.5582ZM20.0366 54.478L24.325 54.4553C24.503 55.2226 24.8123 56.33 25.2817 56.6942C26.0248 57.2689 27.1127 57.1248 27.7295 56.5258C28.5098 55.7666 28.3365 55.0575 27.9674 54.0069C27.6793 53.1845 27.4041 52.3993 27.1127 51.5769C26.5396 49.9597 25.973 48.3489 25.4193 46.7689C24.6989 44.7161 24.7281 43.4405 22.1589 43.4534C21.0856 43.4583 20.2632 43.6687 19.8504 44.3616C19.4457 45.0399 16.9737 52.4009 16.399 53.9874C16.0493 54.9539 15.9003 55.7973 16.5689 56.4757C17.3509 57.2705 19.1154 57.4842 19.6529 55.7391C19.784 55.3149 19.9087 54.9167 20.0366 54.478Z" fill="#005AAB"/>
<path fill-rule="evenodd" clip-rule="evenodd" d="M16.085 64.8193L16.0979 66.231H80.6117C84.1846 66.231 87.7607 66.2488 91.3319 66.231C92.7485 66.2245 94.2508 65.5851 94.9987 64.5571C96.0801 63.0726 96.085 62.4671 96.085 60.2784C95.2901 60.1537 27.7765 60.2444 20.8007 60.246C18.2543 60.246 16.085 62.268 16.085 64.8193Z" fill="#ED1C24"/>
<path fill-rule="evenodd" clip-rule="evenodd" d="M90.113 44.7485C90.3153 45.2439 90.4254 45.0723 90.4011 45.885C90.3882 46.3334 90.3137 46.7786 90.2295 47.2157C90.0822 47.996 89.854 48.7892 89.6726 49.5809C88.9619 52.6842 87.4613 57.7189 92.2029 57.1167C93.7927 56.9144 95.6382 56.0062 94.6134 54.2562C93.9303 54.6496 91.8257 56.1179 91.8257 53.8871C91.8257 52.5078 92.3341 51.1754 92.5251 49.8658C94.0274 49.8625 95.9846 50.1944 96.0818 47.9118C95.0149 48.1271 94.0808 48.221 92.9379 48.1676C93.0755 47.2966 93.8736 45.3993 93.3944 44.742C92.7776 43.897 90.9888 44.5316 90.1114 44.7469L90.113 44.7485ZM57.0361 49.848C57.1737 49.0369 57.7678 47.5443 57.0361 47.0198C56.3626 46.5374 54.794 46.8773 54.1254 47.2545C54.5333 47.588 54.4443 48.1433 54.3617 48.7989C54.1869 50.1912 53.7482 52.1322 53.3952 53.4629C53.2075 54.1704 52.5842 55.8216 52.9371 56.4724C53.4131 57.3515 54.8571 57.1005 55.809 56.7929C55.7199 56.0645 55.3395 56.0175 56.1085 54.4666C56.4501 53.7802 56.7706 53.1327 57.1122 52.4689C57.4619 51.789 57.8633 51.1803 58.2454 50.6007C58.4478 50.2932 58.689 49.9807 58.8881 49.7427C59.0176 49.5857 59.1212 49.5323 59.2523 49.3931C59.4401 49.1939 59.4142 49.134 59.7477 49.1C59.8659 49.9564 58.9545 53.3528 58.7149 54.3614C58.5303 55.1401 58.0997 56.2555 58.7472 56.814C59.3025 57.2916 60.7368 57.0941 61.3148 56.746C60.9586 55.8151 61.2338 55.2421 61.6321 54.4213C61.9737 53.7203 62.2764 53.0938 62.6487 52.4349C63.0794 51.6708 64.5606 49.1357 65.2454 49.1049C65.3636 49.4352 64.3664 53.764 64.2271 54.5136C64.0345 55.5626 64.0895 56.5971 64.9556 56.9662C65.9982 57.4097 66.8449 56.7703 67.5523 56.4951C67.4455 56.249 67.5685 56.4951 67.426 56.283C67.3111 56.113 67.392 56.283 67.282 56.0661C66.7769 55.0688 67.2561 53.3043 67.4714 52.2585C67.6754 51.2726 68.3197 48.7601 68.1982 47.8567C67.9765 46.2023 66.1309 46.5455 64.899 47.397C64.3356 47.7855 63.9762 48.208 63.5683 48.6403C63.0551 49.1826 62.6714 49.8091 62.3897 50.1086C62.4658 49.2538 62.8867 48.3197 62.5241 47.4682C62.1938 46.696 61.3261 46.5098 60.3499 46.8482C59.1568 47.2626 58.4931 48.1093 57.7484 48.9624C57.6124 49.1179 57.5525 49.2037 57.4036 49.4044L57.0361 49.8528V49.848ZM76.0368 49.5533C75.8361 49.8107 74.7935 51.8457 74.0699 52.8461C73.751 53.2865 71.7242 56.3834 71.9071 53.5973C71.9913 52.3151 72.7327 48.1109 74.5588 48.4315C75.1465 48.5351 75.8733 49.1729 76.0352 49.5517L76.0368 49.5533ZM75.1108 53.7446C74.8696 53.9437 74.4811 54.6382 74.235 54.9393C73.6069 55.7067 73.7299 55.4898 73.2831 55.9884C72.7408 56.5938 71.6643 57.3191 70.4242 57.1264C68.174 56.7768 68.6143 53.0792 69.346 51.2629C70.4436 48.5367 72.8849 45.9578 75.7778 46.8547C75.9543 46.9097 76.4092 47.1396 76.4885 47.1525C76.7556 47.1962 76.9628 46.9567 77.2494 46.8789C77.9471 46.6863 79.2681 46.9065 79.7505 47.2383L78.9897 49.2587C78.5089 50.727 78.2207 52.4705 78.1608 54.0263C78.0993 55.6322 78.2725 55.5092 78.5493 56.4805C77.9083 57.0471 76.6633 57.3855 75.705 56.7929C74.8437 56.262 75.0801 54.8843 75.1141 53.743L75.1108 53.7446ZM84.1377 49.9257C84.871 48.9317 86.218 46.9324 87.5778 46.709C89.8264 46.3399 88.2934 49.848 87.1148 50.5813C86.8963 50.2899 86.6745 49.9467 86.1516 50.1297C85.504 50.3563 84.4712 51.9768 84.1474 52.5628C83.7848 53.2201 83.4853 53.8175 83.1858 54.5298C82.4945 56.1826 82.8329 55.9447 82.9397 56.7849C82.0202 57.1022 80.4888 57.3871 79.948 56.5485C79.5644 55.9544 80.2119 54.1493 80.3965 53.4516C80.6652 52.4301 80.9161 51.3762 81.1347 50.3336C81.4131 49.011 81.6382 48.2825 81.2075 47.193C82.0251 46.9599 83.372 46.4597 84.1393 47.0667C84.952 47.7094 84.1523 49.0337 84.1361 49.9241L84.1377 49.9257Z" fill="#ED1C24"/>
<path fill-rule="evenodd" clip-rule="evenodd" d="M16.085 68.9637H89.4006C91.2299 68.9637 92.4991 69.1223 93.9011 68.2465C94.6603 67.7722 95.9684 66.3961 95.9733 65.1253C95.7207 65.2969 95.5912 65.5478 95.3467 65.7631C93.0803 67.7705 91.1053 67.3448 87.8999 67.3448H16.0898L16.085 68.9637Z" fill="#FFD503"/>
</g>
</g>
<rect x="1" y="1" width="110" height="110" rx="9" stroke="black" stroke-opacity="0.1" stroke-width="2"/>
<defs>
<clipPath id="clip0_647_1183">
<rect x="2" y="2" width="108" height="108" rx="8" fill="white"/>
</clipPath>
<clipPath id="clip1_647_1183">
<rect width="80" height="25.6301" fill="white" transform="translate(16.085 43.345)"/>
</clipPath>
</defs>
</svg>
