<svg width="112" height="112" viewBox="0 0 112 112" fill="none" xmlns="http://www.w3.org/2000/svg">
<g clip-path="url(#clip0_6_7359)">
<rect x="1.99991" y="2.00002" width="108" height="108" rx="8" fill="white"/>
<path d="M27.7878 62.0307C27.7878 61.0314 27.7986 58.3604 27.774 58.0313C27.7955 54.0567 24.9057 51.253 23.08 51.4716C21.8167 51.5812 20.758 52.0964 20.1895 53.5782C19.6627 54.9593 20.1337 56.7962 21.8855 57.2273C23.7586 57.6902 24.8523 58.0753 25.6439 58.6187C26.6138 59.2839 27.4056 60.5549 27.4266 62.0322" fill="#0060AF"/>
<path d="M28.5354 68.0722C25.2327 68.0722 21.8384 67.2587 18.4486 65.6498L18.3654 65.6089L18.3256 65.5241C16.8044 62.3131 16 58.8011 16 55.365C16 51.934 16.7714 48.5723 18.2938 45.3656L18.3356 45.2804L18.4203 45.2379C21.5561 43.7524 24.9293 42.9999 28.4496 42.9999C31.7288 42.9999 35.2309 43.8376 38.5757 45.4266L38.6616 45.4648L38.7012 45.5516C40.2515 48.8218 41.0691 52.333 41.0691 55.7121C41.0691 59.0782 40.2841 62.4429 38.7319 65.7111L38.691 65.797L38.6047 65.8367C35.5169 67.2985 32.0346 68.0722 28.5354 68.0722ZM18.7623 65.2095C22.0554 66.7585 25.3396 67.5408 28.5354 67.5408C31.9241 67.5408 35.2942 66.8001 38.2941 65.396C39.7843 62.2291 40.5397 58.9697 40.5397 55.7121C40.5397 52.4415 39.7513 49.0393 38.26 45.8653C35.0139 44.3394 31.6239 43.5302 28.4496 43.5302C25.0415 43.5302 21.7749 44.2531 18.7338 45.6791C17.2741 48.7872 16.5312 52.0441 16.5312 55.365C16.5312 58.6921 17.3033 62.0957 18.7623 65.2095Z" fill="#0060AF"/>
<path d="M27.005 62.0322C27.0111 60.7513 26.2962 59.6187 25.3618 59.01C24.5329 58.472 23.4201 58.1185 21.625 57.6633C21.0701 57.5213 20.4897 57.206 20.31 56.8041C19.8346 57.2831 19.7483 58.3599 19.8319 58.9892C19.9291 59.7174 20.7801 60.9177 22.0615 60.9647C22.844 60.9961 23.8333 60.7963 24.3078 60.6955C25.1262 60.5187 26.4212 61.0314 26.6273 62.0306" fill="#0060AF"/>
<path d="M28.4496 45.2772C26.277 45.2772 24.4002 46.71 24.407 49.1894C24.4138 51.2743 26.0905 52.3904 26.6888 53.1876C27.5929 54.389 28.0823 55.8109 28.1331 57.9867C28.1727 59.7184 28.1706 61.4283 28.1795 62.0343H28.6591C28.6507 61.4002 28.629 59.585 28.6539 57.9332C28.6864 55.7567 29.1934 54.389 30.098 53.1876C30.7015 52.3904 32.3768 51.2743 32.3805 49.1894C32.3886 46.71 30.513 45.2772 28.3422 45.2772" fill="#0060AF"/>
<path d="M29.0012 62.0307C29.0012 61.0314 28.9899 58.3604 29.0141 58.0313C28.9928 54.0567 31.8808 51.253 33.708 51.4716C34.9713 51.5812 36.0289 52.0964 36.599 53.5782C37.1254 54.9593 36.6516 56.7962 34.9019 57.2273C33.0279 57.6902 31.9355 58.0753 31.1419 58.6187C30.1731 59.2839 29.4367 60.5549 29.4141 62.0322" fill="#0060AF"/>
<path d="M29.7833 62.0322C29.7765 60.7513 30.4912 59.6187 31.4229 59.01C32.2551 58.472 33.3692 58.1185 35.1628 57.6633C35.7188 57.5213 36.2986 57.206 36.4751 56.8041C36.9527 57.2831 37.0388 58.3599 36.9552 58.9892C36.856 59.7174 36.0072 60.9177 34.7281 60.9647C33.9458 60.9961 32.9513 60.7963 32.4789 60.6955C31.6636 60.5187 30.3651 61.0314 30.158 62.0306" fill="#0060AF"/>
<path d="M30.4536 66.1675L30.1755 64.1388L30.8466 64.0371C31.01 64.0147 31.2089 64.0432 31.2885 64.1456C31.3764 64.2525 31.4033 64.3409 31.4203 64.481C31.4456 64.6544 31.3954 64.8549 31.2001 64.9548V64.9609C31.4183 64.9609 31.55 65.1175 31.5882 65.382C31.5939 65.4378 31.6104 65.5728 31.5939 65.6853C31.5496 65.9532 31.3898 66.0393 31.1201 66.077L30.4536 66.1675ZM30.8855 65.8042C30.9651 65.7929 31.0458 65.7886 31.1088 65.7484C31.2053 65.6853 31.1965 65.5504 31.1832 65.4503C31.1495 65.2301 31.0921 65.1465 30.8586 65.1811L30.7119 65.2037L30.8048 65.8155L30.8855 65.8042ZM30.7449 64.8669C30.8337 64.8525 30.9542 64.8418 31.0044 64.7575C31.0306 64.7012 31.0643 64.6564 31.0421 64.5312C31.0148 64.3827 30.9655 64.2907 30.777 64.3264L30.6014 64.3547L30.6705 64.8746" fill="#0060AF"/>
<path d="M33.3605 64.9473C33.3657 64.9851 33.3718 65.0271 33.3741 65.0649C33.4283 65.4349 33.3605 65.7412 32.9446 65.8255C32.3298 65.9439 32.2121 65.5619 32.1038 65.0271L32.0462 64.7378C31.9614 64.2261 31.925 63.8387 32.5245 63.7193C32.8624 63.6576 33.0857 63.7921 33.1786 64.1284C33.193 64.1786 33.2111 64.2283 33.2179 64.2787L32.8502 64.3547C32.8077 64.2283 32.7514 64.0025 32.5859 64.0215C32.2889 64.0572 32.387 64.4268 32.4175 64.5812L32.5281 65.1365C32.5613 65.3045 32.6273 65.5728 32.8843 65.521C33.0929 65.4792 33.0021 65.1542 32.9835 65.021" fill="#0060AF"/>
<path d="M33.9507 65.5612L33.8235 63.4619L34.3176 63.3111L35.3535 65.137L34.9645 65.2534L34.719 64.7894L34.2871 64.9191L34.3429 65.4466L33.9507 65.5612ZM34.2509 64.58L34.5631 64.4896L34.1485 63.6402" fill="#0060AF"/>
<path d="M21.7467 63.9741C21.9013 63.4791 22.0399 63.1147 22.6298 63.2765C22.9456 63.3647 23.1414 63.5039 23.1321 63.8708C23.1306 63.9524 23.1036 64.0355 23.086 64.1162L22.7187 64.0147C22.7668 63.8122 22.7973 63.6515 22.5478 63.5747C22.2594 63.4956 22.1891 63.8452 22.1493 63.9962L21.9999 64.5466C21.9524 64.71 21.8955 64.9801 22.1493 65.0497C22.3591 65.1062 22.4863 64.9003 22.5623 64.5997L22.3053 64.5317L22.3941 64.2132L22.9983 64.4076L22.7114 65.4683L22.4334 65.3929L22.496 65.1686H22.4881C22.3602 65.352 22.204 65.3712 22.0672 65.3449C21.4631 65.1815 21.5261 64.7866 21.6703 64.2591" fill="#0060AF"/>
<path d="M23.9956 64.87L23.8136 65.733L23.4041 65.6444L23.8405 63.6294L24.5387 63.7871C24.9474 63.8753 25.0708 64.0572 25.0129 64.4318C24.9799 64.6467 24.8739 64.8784 24.6151 64.8597L24.6124 64.8561C24.8312 64.9328 24.8497 65.0431 24.8115 65.2338C24.7951 65.315 24.6814 65.8075 24.7598 65.8871L24.7625 65.9474L24.3387 65.8369C24.3211 65.7004 24.381 65.4549 24.4047 65.319C24.4286 65.1988 24.4668 65.0293 24.3448 64.9655C24.2492 64.9147 24.2137 64.9172 24.1057 64.8923L23.9956 64.87ZM24.0654 64.5579L24.3412 64.6323C24.5087 64.6564 24.6018 64.5697 24.6348 64.3674C24.6646 64.1818 24.626 64.1092 24.4757 64.0733L24.18 64.0134" fill="#0060AF"/>
<path d="M26.6225 64.0796L27.0276 64.1266L26.8531 65.5432C26.7683 65.9923 26.5947 66.1887 26.1006 66.1272C25.5979 66.0637 25.4786 65.8348 25.5091 65.382L25.6847 63.9666L26.0929 64.0134L25.9177 65.3972C25.8992 65.5475 25.8644 65.7701 26.1318 65.797C26.3689 65.8151 26.4227 65.658 26.4494 65.4627" fill="#0060AF"/>
<path d="M27.4741 66.2048L27.596 64.1791L28.3742 64.2128C28.7419 64.2308 28.8382 64.5312 28.8267 64.8178C28.8161 64.9921 28.7616 65.1867 28.6097 65.2923C28.4852 65.382 28.3251 65.4032 28.1766 65.396L27.923 65.382L27.8724 66.2309L27.4741 66.2048ZM27.9345 65.073L28.1407 65.0846C28.3082 65.0906 28.4192 65.0244 28.4336 64.7785C28.4418 64.5423 28.3525 64.5023 28.1355 64.4928L27.9721 64.4872" fill="#0060AF"/>
<path d="M82.3618 47.2351L79.2688 52.849C78.1013 51.9011 76.6758 51.2033 74.8569 51.2033C70.5526 51.2033 68.8042 54.4118 68.8042 56.6719C68.8042 58.3495 69.9027 60.8248 73.7326 60.8248C75.3401 60.8248 77.6255 59.7064 78.2833 59.1976L75.2242 65.7107C73.7661 66.0016 73.2871 66.1819 72.0527 66.2201C65.1979 66.4247 62.4279 62.2137 62.4299 57.9108C62.4345 52.2225 67.4919 45.3046 75.8758 45.3046C76.3896 45.3046 77.018 45.4823 77.5552 45.6791L78.0982 44.9848" fill="#0060AF"/>
<path d="M95.1241 45.1608L96 65.5651H89.4817L89.4779 62.0657H85.0332L83.5703 65.5651H76.5012L83.8917 50.9947L82.2252 50.9838L85.3917 45.1608H95.1241ZM89.4356 51.4029L86.9226 57.3378H89.5113" fill="#0060AF"/>
<path d="M58.3149 45.1608C61.5428 45.1789 63.3669 46.9311 63.3669 49.4622C63.3669 51.7955 61.4431 53.861 59.3313 54.929C61.5055 55.7282 61.6936 57.6902 61.6936 59.0782C61.6936 62.4316 58.3287 65.5651 53.9547 65.5651H44.4158L48.1367 51.1977L46.6083 51.1889L49.7327 45.1608C49.7327 45.1608 55.69 45.1428 58.3149 45.1608ZM55.1479 53.4336C55.8156 53.4336 56.9946 53.2645 57.2894 51.9723C57.6124 50.5695 56.5059 50.5318 55.9752 50.5318L54.0788 50.5235L53.4175 53.4336L55.1479 53.4336ZM52.4668 57.0392L51.5936 60.3926H53.8266C54.7051 60.3926 55.9024 59.9566 56.1958 58.8653C56.4856 57.7709 55.6486 57.0392 54.7732 57.0392" fill="#0060AF"/>
</g>
<rect x="1" y="1" width="110" height="110" rx="9" stroke="#CCCCCC" stroke-width="2"/>
<defs>
<clipPath id="clip0_6_7359">
<rect x="2" y="2" width="108" height="108" rx="8" fill="white"/>
</clipPath>
</defs>
</svg>
