<svg width="112" height="112" viewBox="0 0 112 112" fill="none" xmlns="http://www.w3.org/2000/svg">
<g clip-path="url(#clip0_647_1265)">
<rect x="2" y="2" width="108" height="108" rx="8" fill="white"/>
<g clip-path="url(#clip1_647_1265)">
<path fill-rule="evenodd" clip-rule="evenodd" d="M18.8109 42.575H94.1891C94.8252 42.575 95.404 42.8346 95.8222 43.2528C96.2403 43.671 96.5 44.2487 96.5 44.8858V67.1142C96.5 67.7502 96.2403 68.329 95.8222 68.7472C95.404 69.1653 94.8263 69.425 94.1891 69.425H18.8109C18.1748 69.425 17.596 69.1653 17.1779 68.7472C16.7597 68.329 16.5 67.7513 16.5 67.1142V44.8858C16.5 44.2498 16.7597 43.671 17.1779 43.2528C17.596 42.8346 18.1748 42.575 18.8109 42.575Z" fill="#F0F0F0"/>
<path fill-rule="evenodd" clip-rule="evenodd" d="M95.6197 60.8011V67.1142C95.6197 67.9009 94.976 68.5447 94.1892 68.5447H18.8109C18.0241 68.5447 17.3804 67.9009 17.3804 67.1142V60.8011H95.6197Z" fill="#FECF22"/>
<path d="M95.6197 52.1078H17.3804V59.8933H95.6197V52.1078Z" fill="#006AB4"/>
<path fill-rule="evenodd" clip-rule="evenodd" d="M18.8109 43.4553H94.1892C94.976 43.4553 95.6197 44.0991 95.6197 44.8859V51.2H17.3804V44.8859C17.3804 44.0991 18.0241 43.4553 18.8109 43.4553Z" fill="#D61627"/>
<path fill-rule="evenodd" clip-rule="evenodd" d="M29.3341 48.8902C34.5809 47.3354 39.0222 46.411 43.2543 45.8718C47.0442 45.3887 50.6491 45.2193 54.5061 45.1829V45.1697H58.6458V45.184C62.4708 45.2226 66.0527 45.3964 69.8183 45.8806C74.0296 46.4209 78.4499 47.3442 83.6659 48.8891C84.2392 49.0586 84.796 49.3271 85.2164 49.7464C85.6587 50.1887 85.936 50.7532 85.936 51.4729V60.5249C85.936 61.2446 85.6587 61.8091 85.2164 62.2514C84.7971 62.6707 84.2392 62.9392 83.6659 63.1087C78.4499 64.6536 74.0296 65.5769 69.8183 66.1172C66.0516 66.6014 62.4708 66.7752 58.6458 66.8138V66.827H57.2912V66.8226H56.8576H56.7751V66.827H56.2249V66.8226H55.4546V66.8204C51.2829 66.805 47.4524 66.6542 43.4513 66.1546C39.1762 65.6209 34.6799 64.6911 29.3341 63.1076C28.7608 62.9381 28.204 62.6696 27.7836 62.2503C27.3413 61.808 27.064 61.2435 27.064 60.5238V51.474C27.064 50.7543 27.3413 50.1898 27.7836 49.7475C28.2029 49.3282 28.7608 49.0597 29.3341 48.8902Z" fill="#E6E6E6"/>
<path fill-rule="evenodd" clip-rule="evenodd" d="M65.5926 59.0603C65.2669 58.6036 65.5794 57.8432 65.8094 57.4184C66.0537 56.9684 66.4146 56.3962 66.9869 56.5062C67.2488 57.4481 66.4091 59.1516 65.5926 59.0603ZM47.8133 56.4468C48.2369 57.5087 46.8449 59.452 46.3739 58.9227C45.9921 58.4924 46.8845 56.2289 47.8133 56.4468ZM50.7426 58.9238L50.5775 58.5618C50.1164 58.6663 49.388 59.0944 48.8719 58.9711C48.5913 58.3285 50.616 54.0996 51.0023 52.8044L49.9866 52.8495C49.6994 53.3227 49.1701 54.9777 48.9115 55.3211C47.1145 55.1329 46.3662 55.6512 45.6345 56.6096C44.4438 58.1656 45.3175 58.3219 44.4218 58.8314C43.6328 59.2803 43.7461 59.0261 43.6867 58.9623C43.3599 58.6773 44.2776 56.7131 44.3657 56.285C44.479 55.7271 44.1896 55.2814 43.6702 55.3111C43.1849 55.3398 42.8229 55.6842 42.4763 55.8702C41.2768 56.5172 42.4058 54.0171 39.1387 56.3257C38.8867 56.504 38.2529 56.8704 38.1285 56.9948C38.1561 56.7901 39.0969 54.7598 39.2884 54.2834C39.657 53.3667 40.0268 52.4193 40.3415 51.4872C39.1552 51.4069 35.6229 52.0198 34.5489 52.9783C32.5175 54.7896 34.9395 57.1841 36.5395 55.3442C36.1533 55.0669 35.5613 55.3354 35.4699 54.6223C35.3918 54.0105 35.6119 53.6033 35.942 53.348C36.3459 53.0377 38.1175 52.7186 38.7437 52.6008C38.6787 52.931 38.4036 53.5549 38.2716 53.9235C37.5717 55.8746 36.7145 58.8523 34.2243 58.9293C32.9225 58.97 32.5495 58.3879 32.0873 57.4977C31.8023 57.8201 31.6845 58.4869 31.8496 58.9733C31.997 59.4091 32.3404 59.7106 32.7475 59.9065C34.6931 60.8451 36.4108 59.2649 37.7918 58.1942C38.1406 57.9246 39.4369 56.6096 40.1016 56.9365C40.4735 57.677 39.3951 59.2319 39.3709 60.0022L40.6529 60.0297C40.884 59.3948 41.071 58.7015 41.2911 58.0347C41.4782 57.468 41.739 56.4589 42.4829 56.9706C42.7679 57.731 41.5574 59.3233 42.221 59.857C42.9087 60.4105 44.4537 59.3023 44.8213 59.0801C45.1085 59.4927 45.103 60.0088 45.8435 60.1343C46.4345 60.2344 47.0331 59.9549 47.3687 59.6787C47.5778 59.9362 47.5261 60.1948 48.0102 60.1497C48.4856 60.1045 49.8997 59.1802 50.7448 58.9238H50.7426ZM75.0705 57.8388C75.0133 57.1708 75.7495 56.2487 76.2732 56.2729C76.4471 56.6658 76.1423 57.0982 75.9475 57.3282C75.723 57.5934 75.4887 57.8806 75.0705 57.8388ZM55.7792 56.2498L55.9255 56.6999C56.3261 56.5876 56.7717 56.3257 57.1723 56.4358C57.2977 57.1984 56.1412 59.2924 55.9728 60.1794L57.235 60.153C57.4837 59.7348 57.7456 58.7565 57.9382 58.2437C58.1384 57.7111 58.3717 56.6702 59.1057 56.9255C59.5382 57.7805 58.3618 59.3156 58.2738 60.1508L59.7142 60.164C59.9805 59.3959 60.282 58.4418 60.5946 57.6836C60.7497 57.3073 60.9137 56.7186 61.4727 56.8748C62.1098 57.0531 61.0105 58.2459 61.0226 59.3012C61.0281 59.7733 61.3484 60.1882 61.8193 60.142C62.4466 60.0803 63.4975 59.222 64.0367 59.101C64.2831 59.6567 64.3349 60.0033 64.994 60.1067C65.6675 60.2124 66.0889 59.8933 66.5214 59.6424C66.5346 59.6556 66.5489 59.6765 66.5566 59.6864L66.6534 59.8228C66.7855 60.0143 66.8603 60.164 67.1816 60.1959C68.2446 60.3026 69.8138 58.6069 70.4268 57.7981C71.1123 56.8935 70.8328 56.9618 71.7131 56.8847C71.5195 57.7177 70.5709 59.0493 71.3731 59.8548C72.1764 60.6625 73.7797 59.573 74.2672 59.288C74.7162 59.7843 74.9538 60.2245 76.0224 60.175C76.8642 60.1365 77.3307 59.7975 78.0053 59.6017C78.8262 60.9497 81.5079 59.6237 81.4056 58.8028C81.0589 58.7367 80.6551 59.2187 80.2997 59.4102C79.8078 59.6743 79.3082 59.5059 79.2972 58.9348C79.2917 58.652 79.9783 56.5524 80.1148 56.2905L80.9269 56.2828L81.1965 55.3585L80.6254 55.3475C80.7321 54.3791 81.246 53.5494 81.4199 52.6922L80.2788 52.7373L79.3632 55.2715L78.5269 55.3189L78.3299 56.2696L78.9869 56.2586C78.8471 57.1598 78.3255 58.3769 77.8666 58.9491C77.3924 59.5422 75.6911 59.8955 75.383 58.8589C75.7814 58.4132 76.4768 58.3109 77.0193 57.3711C78.3805 55.0162 75.6636 54.729 74.5544 56.3686C73.8622 57.3931 74.0757 57.7111 74.1142 58.9238C72.7464 59.6842 72.2655 59.836 72.3888 58.4957C72.5131 57.14 72.72 57.3414 72.9456 57.1004C73.1184 56.9155 73.1833 56.5832 72.9951 56.4017C72.7772 56.1761 72.4064 56.3763 72.0003 56.2311C71.7428 55.594 72.183 55.4883 72.3602 55.1395C72.1258 55.0845 71.9376 55.1164 71.7043 55.0801C71.1442 54.9931 71.646 54.9788 71.2708 54.762C70.9483 54.8864 70.9263 54.8985 70.813 55.2605C70.4862 56.3026 70.605 56.5293 70.0339 57.3304C69.7236 57.7662 68.6727 59.233 67.9508 58.9634C67.6174 58.5233 68.8895 55.9472 69.0468 55.3012C67.7516 55.2044 67.9453 55.4509 67.7638 55.6512C66.5665 55.1131 65.9371 55.5708 65.202 56.2234C64.15 57.1576 64.1038 58.5023 63.975 58.6509C63.6559 58.8578 63.0078 59.1439 62.5346 58.9722C62.3981 58.433 63.2356 56.8539 63.372 56.2113C63.5162 55.5334 63.1255 55.1725 62.4422 55.3486C61.9294 55.4806 61.7324 55.956 61.2603 56.0176C60.8631 55.7381 60.8455 55.1516 60.0334 55.2913C59.46 55.3893 59.4237 55.8371 58.7756 55.9659C58.7624 55.9472 58.7525 55.9219 58.7459 55.9065L58.6743 55.7282C58.6424 55.6391 58.5709 55.3607 58.4268 55.2836C57.772 55.2 56.4647 56.044 55.7792 56.2454V56.2498Z" fill="#006AB4"/>
<path fill-rule="evenodd" clip-rule="evenodd" d="M53.2262 55.8756C53.6664 55.8756 54.0659 56.0539 54.3542 56.3433C54.6425 56.6316 54.8218 57.0311 54.8218 57.4712C54.8218 57.9114 54.6436 58.3109 54.3542 58.5992C54.0659 58.8875 53.6664 59.0668 53.2262 59.0668C52.7861 59.0668 52.3866 58.8886 52.0983 58.5992C51.81 58.3109 51.6306 57.9114 51.6306 57.4712C51.6306 57.0311 51.8089 56.6316 52.0983 56.3433C52.3866 56.055 52.7861 55.8756 53.2262 55.8756ZM53.2262 54.5001C52.4053 54.5001 51.6626 54.8324 51.1256 55.3705C50.5875 55.9086 50.2551 56.6514 50.2551 57.4712C50.2551 58.291 50.5875 59.0349 51.1256 59.5719C51.6637 60.1089 52.4064 60.4423 53.2262 60.4423C54.046 60.4423 54.7899 60.11 55.3269 59.5719C55.865 59.0338 56.1974 58.291 56.1974 57.4712C56.1974 56.6514 55.865 55.9075 55.3269 55.3705C54.7888 54.8324 54.046 54.5001 53.2262 54.5001ZM55.0936 55.6038C54.6161 55.1263 53.9558 54.8302 53.2262 54.8302C52.4967 54.8302 51.8364 55.1263 51.3588 55.6038C50.8813 56.0814 50.5853 56.7417 50.5853 57.4712C50.5853 58.2008 50.8813 58.8611 51.3588 59.3386C51.8364 59.8162 52.4967 60.1122 53.2262 60.1122C53.9558 60.1122 54.6161 59.8162 55.0936 59.3386C55.5712 58.8611 55.8672 58.2008 55.8672 57.4712C55.8672 56.7417 55.5712 56.0814 55.0936 55.6038ZM53.2262 55.1879C52.5957 55.1879 52.0246 55.4432 51.6119 55.8569C51.1982 56.2696 50.9429 56.8407 50.9429 57.4712C50.9429 58.1018 51.1982 58.6729 51.6119 59.0855C52.0257 59.4993 52.5957 59.7546 53.2262 59.7546C53.8568 59.7546 54.4279 59.4993 54.8405 59.0855C55.2543 58.6729 55.5096 58.1018 55.5096 57.4712C55.5096 56.8407 55.2543 56.2696 54.8405 55.8569C54.4268 55.4432 53.8568 55.1879 53.2262 55.1879ZM54.6073 56.0902C54.254 55.737 53.7654 55.518 53.2262 55.518C52.687 55.518 52.1985 55.737 51.8452 56.0902C51.492 56.4435 51.273 56.932 51.273 57.4712C51.273 58.0104 51.492 58.499 51.8452 58.8523C52.1985 59.2055 52.687 59.4245 53.2262 59.4245C53.7654 59.4245 54.254 59.2055 54.6073 58.8523C54.9605 58.499 55.1795 58.0104 55.1795 57.4712C55.1795 56.932 54.9605 56.4435 54.6073 56.0902ZM54.1209 56.5766C53.892 56.3477 53.5751 56.2058 53.2262 56.2058C52.8774 56.2058 52.5605 56.3477 52.3316 56.5766C52.1027 56.8055 51.9608 57.1224 51.9608 57.4712C51.9608 57.8201 52.1027 58.137 52.3316 58.3659C52.5605 58.5948 52.8774 58.7367 53.2262 58.7367C53.5751 58.7367 53.892 58.5948 54.1209 58.3659C54.3498 58.137 54.4917 57.8201 54.4917 57.4712C54.4917 57.1224 54.3498 56.8055 54.1209 56.5766Z" fill="#D61627"/>
<path fill-rule="evenodd" clip-rule="evenodd" d="M29.705 50.1535C40.072 47.0823 47.2027 46.5078 55.8266 46.4913H57.3254C65.8811 46.5144 72.9886 47.101 83.2951 50.1535C83.9917 50.3593 84.6156 50.7477 84.6156 51.474V60.526C84.6156 61.2523 83.9917 61.6407 83.2951 61.8465C72.9886 64.9001 65.8811 65.4856 57.3254 65.5087H57.2913C57.1196 65.5087 56.9479 65.5087 56.7752 65.5087H56.225C47.4206 65.5098 40.2316 64.9651 29.705 61.8465C29.0085 61.6407 28.3845 61.2523 28.3845 60.526V51.474C28.3845 50.7477 29.0085 50.3593 29.705 50.1535ZM56.0137 48.4743C47.9587 48.504 40.7422 48.811 31.3006 51.2539C30.5975 51.4355 29.9801 51.8481 29.9801 52.5744V59.4256C29.9801 60.1519 30.5975 60.5645 31.3006 60.7461C40.6684 63.1692 47.8464 63.4905 55.8266 63.5246H57.1757C65.1548 63.4905 72.3328 63.1692 81.6995 60.7461C82.4027 60.5645 83.02 60.1519 83.02 59.4256V52.5744C83.02 51.8481 82.4027 51.4355 81.6995 51.2539C72.258 48.8121 65.0415 48.5051 56.9865 48.4743H56.0126H56.0137Z" fill="#D61627"/>
</g>
</g>
<rect x="1" y="1" width="110" height="110" rx="9" stroke="black" stroke-opacity="0.1" stroke-width="2"/>
<defs>
<clipPath id="clip0_647_1265">
<rect x="2" y="2" width="108" height="108" rx="8" fill="white"/>
</clipPath>
<clipPath id="clip1_647_1265">
<rect width="80" height="26.8501" fill="white" transform="translate(16.5 42.575)"/>
</clipPath>
</defs>
</svg>
