<svg width="112" height="112" viewBox="0 0 112 112" fill="none" xmlns="http://www.w3.org/2000/svg">
<g clip-path="url(#clip0_752_549)">
<rect x="1.99988" y="2" width="108" height="108" rx="8" fill="white"/>
<path d="M55.9574 88.9375C49.7648 88.9375 44.2539 87.574 39.4248 84.8469C34.5957 82.0631 30.8176 78.2282 28.0905 73.3423C25.3635 68.3995 24 62.8034 24 56.554C24 50.3045 25.3635 44.7084 28.0905 39.7657C30.8744 34.8229 34.6809 30.9596 39.51 28.1758C44.3959 25.3919 49.9352 24 56.1278 24C62.2637 24 67.7461 25.3919 72.5752 28.1758C77.4612 30.9028 81.2392 34.7377 83.9095 39.6804C86.6365 44.6232 88 50.2477 88 56.554C88 62.8034 86.6365 68.3995 83.9095 73.3423C81.1824 78.2282 77.3759 82.0631 72.49 84.8469C67.6609 87.574 62.15 88.9375 55.9574 88.9375ZM55.9574 83.9095C61.241 83.9095 65.8997 82.7732 69.9334 80.5007C73.9672 78.2282 77.0919 75.0182 79.3076 70.8709C81.5801 66.7235 82.7164 61.9512 82.7164 56.554C82.7164 51.1567 81.6085 46.3844 79.3928 42.237C77.1771 38.0329 74.0524 34.7945 70.0186 32.522C65.9849 30.1926 61.3546 29.028 56.1278 29.028C50.901 29.028 46.2423 30.1926 42.1518 32.522C38.0613 34.7945 34.8797 38.0329 32.6072 42.237C30.3915 46.3844 29.2836 51.1567 29.2836 56.554C29.2836 61.9512 30.3915 66.7235 32.6072 70.8709C34.8229 75.0182 37.9476 78.2282 41.9814 80.5007C46.0151 82.7732 50.6738 83.9095 55.9574 83.9095ZM55.9574 81.5234C51.1851 81.5234 46.9525 80.5007 43.2597 78.4554C39.5668 76.3534 36.6977 73.4275 34.6525 69.6778C32.664 65.8713 31.6698 61.4967 31.6698 56.554C31.6698 51.6112 32.6924 47.2366 34.7377 43.4301C36.783 39.6236 39.6236 36.6693 43.2597 34.5673C46.9525 32.4652 51.1851 31.4141 55.9574 31.4141C60.7297 31.4141 64.9623 32.4652 68.6551 34.5673C72.348 36.6693 75.217 39.652 77.2623 43.5153C79.3076 47.3218 80.3302 51.668 80.3302 56.554C80.3302 61.4399 79.3076 65.7861 77.2623 69.5926C75.217 73.3423 72.348 76.2681 68.6551 78.3702C64.9623 80.4723 60.7297 81.5234 55.9574 81.5234ZM55.9574 76.4954C59.7071 76.4954 63.0306 75.6716 65.9281 74.024C68.8256 72.3196 71.0697 69.9619 72.6605 66.9508C74.2512 63.8829 75.0466 60.4173 75.0466 56.554C75.0466 52.6338 74.2228 49.1682 72.5752 46.1571C70.9845 43.0892 68.7403 40.7031 65.8429 38.9987C62.9454 37.2943 59.6502 36.4421 55.9574 36.4421C52.2645 36.4421 48.9694 37.2943 46.0719 38.9987C43.1744 40.7031 40.9303 43.0892 39.3395 46.1571C37.7488 49.1682 36.9534 52.6338 36.9534 56.554C36.9534 60.4173 37.7488 63.8829 39.3395 66.9508C40.9303 69.9619 43.1744 72.3196 46.0719 74.024C48.9694 75.6716 52.2645 76.4954 55.9574 76.4954Z" fill="#5827D4"/>
</g>
<rect x="1" y="1" width="110" height="110" rx="9" stroke="black" stroke-opacity="0.1" stroke-width="2"/>
<defs>
<clipPath id="clip0_752_549">
<rect x="2" y="2" width="108" height="108" rx="8" fill="white"/>
</clipPath>
</defs>
</svg>
