<svg width="112" height="112" viewBox="0 0 112 112" fill="none" xmlns="http://www.w3.org/2000/svg">
<g clip-path="url(#clip0_752_319)">
<rect x="2" y="2" width="108" height="108" rx="8" fill="white"/>
<g clip-path="url(#clip1_752_319)">
<path fill-rule="evenodd" clip-rule="evenodd" d="M40.9554 38.0072L17.0556 41.1942C17.0556 41.1942 16 41.3168 16 42.5887V65.2858C16 65.2858 16.1442 67.9421 19.1798 67.9421H46.2666C46.2666 67.9421 48.6807 67.3653 48.6807 64.9483V46.2199C48.6807 46.2199 48.7282 43.5636 45.5427 43.5636H19.4221C19.1147 43.4986 18.8319 43.3479 18.6066 43.1289C18.3813 42.91 18.2225 42.6317 18.1487 42.3263C18.0694 41.9052 18.2396 41.8619 18.6852 41.8619H42.67V39.2748C42.67 39.2748 42.5849 37.8875 40.9554 38.0072Z" fill="#E8451E"/>
<path fill-rule="evenodd" clip-rule="evenodd" d="M32.8249 64.0903C30.8434 64.0903 29.384 63.2827 27.231 61.1528C27.0547 60.9687 26.9572 60.7231 26.9593 60.4682C26.9614 60.2133 27.063 59.9693 27.2424 59.7882C27.4218 59.6072 27.6648 59.5033 27.9197 59.4988C28.1745 59.4943 28.4211 59.5894 28.6068 59.764C30.8737 62.005 31.9236 62.5617 33.7348 62.0714C34.7876 61.783 35.7321 60.4447 35.7869 58.906C35.8302 57.7105 34.9866 56.9303 33.2806 56.5886C30.2176 55.9757 28.4092 54.8047 27.9073 53.1059C27.5036 51.7388 28.0342 50.2116 29.3624 48.9238L29.4172 48.8748C32.2726 46.4882 35.5879 48.2662 36.942 49.5411C37.1227 49.7205 37.2263 49.9633 37.2308 50.2178C37.2352 50.4724 37.1402 50.7187 36.9659 50.9043C36.7915 51.0899 36.5517 51.2002 36.2973 51.2117C36.043 51.2232 35.7941 51.135 35.6038 50.9658C35.4899 50.8591 32.9244 48.5287 30.7007 50.3515C29.9407 51.1028 29.5975 51.9263 29.7849 52.5579C30.0561 53.478 31.4347 54.2307 33.6656 54.6778C37.4569 55.4363 37.7799 57.9412 37.7424 58.9824C37.6617 61.2508 35.7639 63.7918 33.9829 64.0168C33.5988 64.0657 33.212 64.0903 32.8249 64.0903Z" fill="white"/>
<path fill-rule="evenodd" clip-rule="evenodd" d="M58.7335 43.4266C58.301 43.1625 57.8328 42.9619 57.3433 42.831C56.3338 42.5426 55.6056 42.1734 55.258 41.7019C54.948 41.2923 54.948 40.7587 55.3201 40.0752C55.5306 39.6656 56.0411 39.406 56.6972 39.3541C57.5277 39.3212 58.3515 39.5141 59.081 39.9122C59.1862 39.9648 59.308 39.9735 59.4195 39.9363C59.5311 39.8991 59.6233 39.8191 59.6759 39.7139C59.7285 39.6088 59.7371 39.487 59.6999 39.3754C59.6628 39.2639 59.5828 39.1717 59.4776 39.1191C58.4609 38.597 57.4587 38.398 56.6237 38.4615C55.6546 38.535 54.8932 38.9576 54.5269 39.6397C53.9674 40.6708 54.0049 41.5144 54.5269 42.221C55.01 42.8541 55.8911 43.3386 57.0953 43.6732C57.5074 43.7879 57.9033 43.9546 58.2735 44.1693C58.745 44.4577 59.0551 44.7908 59.205 45.1499C59.3486 45.4889 59.3691 45.8675 59.2627 46.2199C59.2046 46.4026 59.1252 46.5778 59.0262 46.742C59.0262 46.7665 59.0017 46.791 58.9772 46.8285C58.6167 47.3621 58.0341 47.6346 57.326 47.6346C56.5444 47.6346 55.5883 47.3246 54.5716 46.7045C54.4274 46.6179 54.2832 46.53 54.1621 46.4434C54.0634 46.3777 53.9426 46.3538 53.8263 46.377C53.71 46.4003 53.6077 46.4688 53.542 46.5675C53.4762 46.6661 53.4523 46.7869 53.4755 46.9032C53.4988 47.0195 53.5673 47.1218 53.666 47.1876C53.8116 47.2794 53.9522 47.379 54.0871 47.4861C55.2537 48.1941 56.3584 48.5402 57.3015 48.5402C58.3196 48.5402 59.1632 48.1437 59.6968 47.3491C59.7184 47.3058 59.7435 47.2643 59.7718 47.2251C59.9158 46.993 60.0283 46.7427 60.1063 46.4809C60.2729 45.9326 60.2376 45.3428 60.0068 44.8182C59.7387 44.2324 59.2933 43.7456 58.7335 43.4266Z" fill="#E8451E"/>
<path fill-rule="evenodd" clip-rule="evenodd" d="M65.5719 42.446C65.0637 42.3212 64.531 42.3381 64.0318 42.495C63.4631 42.6707 62.9385 42.9656 62.4931 43.3603V38.884C62.4866 38.77 62.4367 38.6628 62.3537 38.5844C62.2707 38.506 62.1609 38.4623 62.0467 38.4623C61.9326 38.4623 61.8227 38.506 61.7397 38.5844C61.6567 38.6628 61.6069 38.77 61.6004 38.884V48.1047C61.6069 48.2187 61.6567 48.3259 61.7397 48.4043C61.8227 48.4827 61.9326 48.5264 62.0467 48.5264C62.1609 48.5264 62.2707 48.4827 62.3537 48.4043C62.4367 48.3259 62.4866 48.2187 62.4931 48.1047V44.6538C62.5019 44.6469 62.5101 44.6392 62.5176 44.6307C63.0771 43.9472 63.6972 43.5261 64.2928 43.3401C64.6343 43.2294 64.9999 43.2164 65.3484 43.3026C65.632 43.3794 65.8811 43.5503 66.055 43.7871C66.2486 44.0871 66.3439 44.4399 66.3276 44.7966V48.0946C66.3276 48.2132 66.3747 48.3269 66.4585 48.4108C66.5423 48.4946 66.656 48.5417 66.7746 48.5417C66.8932 48.5417 67.0069 48.4946 67.0907 48.4108C67.1746 48.3269 67.2216 48.2132 67.2216 48.0946V44.7923C67.237 44.2529 67.0804 43.7226 66.7746 43.2781C66.4825 42.8695 66.0573 42.5753 65.5719 42.446Z" fill="#E8451E"/>
<path fill-rule="evenodd" clip-rule="evenodd" d="M73.1659 47.0131C72.7502 47.426 72.188 47.6577 71.602 47.6577C71.016 47.6577 70.4538 47.426 70.038 47.0131C69.6251 46.5973 69.3934 46.0351 69.3934 45.4491C69.3934 44.8631 69.6251 44.3009 70.038 43.8852C70.4554 43.4742 71.017 43.2428 71.6027 43.2406C72.0397 43.2408 72.4667 43.3706 72.83 43.6134C73.1932 43.8563 73.4763 44.2013 73.6436 44.605C73.8109 45.0087 73.8548 45.4528 73.7698 45.8814C73.6847 46.31 73.4746 46.7038 73.1659 47.0131ZM71.6027 42.3594C70.7948 42.3769 70.0259 42.7101 69.4608 43.2876C68.8956 43.8651 68.5791 44.6411 68.5791 45.4491C68.5791 46.2572 68.8956 47.0331 69.4608 47.6106C70.0259 48.1882 70.7948 48.5213 71.6027 48.5388C72.4106 48.5213 73.1795 48.1882 73.7447 47.6106C74.3099 47.0331 74.6264 46.2572 74.6264 45.4491C74.6264 44.6411 74.3099 43.8651 73.7447 43.2876C73.1795 42.7101 72.4106 42.3769 71.6027 42.3594Z" fill="#E8451E"/>
<path fill-rule="evenodd" clip-rule="evenodd" d="M80.6864 47.0131C80.2705 47.4258 79.7092 47.6588 79.1232 47.662C78.6863 47.6617 78.2592 47.532 77.896 47.2891C77.5327 47.0463 77.2496 46.7012 77.0823 46.2976C76.915 45.8939 76.8711 45.4497 76.9562 45.0211C77.0412 44.5925 77.2513 44.1987 77.56 43.8895C77.9766 43.4784 78.5379 43.2469 79.1232 43.2449C79.5593 43.246 79.9853 43.3761 80.3476 43.6187C80.7099 43.8613 80.9924 44.2057 81.1595 44.6085C81.3266 45.0113 81.3708 45.4545 81.2866 45.8823C81.2025 46.3102 80.9936 46.7036 80.6864 47.0131ZM79.1347 42.3594C78.7291 42.359 78.3273 42.4387 77.9526 42.5942C77.5779 42.7496 77.2377 42.9776 76.9514 43.2651C76.9151 43.2949 76.8818 43.3282 76.8519 43.3646V42.8065C76.8519 42.6879 76.8048 42.5742 76.721 42.4904C76.6371 42.4065 76.5234 42.3594 76.4049 42.3594C76.2863 42.3594 76.1726 42.4065 76.0888 42.4904C76.0049 42.5742 75.9578 42.6879 75.9578 42.8065V51.5917C75.9578 51.7103 76.0049 51.824 76.0888 51.9078C76.1726 51.9917 76.2863 52.0388 76.4049 52.0388C76.5234 52.0388 76.6371 51.9917 76.721 51.9078C76.8048 51.824 76.8519 51.7103 76.8519 51.5917V47.5337C76.8879 47.5639 76.9212 47.5972 76.9514 47.6332C77.3107 47.9923 77.753 48.2572 78.2391 48.4046C78.7252 48.5519 79.2402 48.5771 79.7384 48.4779C80.2366 48.3787 80.7026 48.1581 81.0952 47.8358C81.4878 47.5135 81.7948 47.0993 81.9891 46.63C82.1834 46.1606 82.259 45.6506 82.2091 45.1451C82.1593 44.6396 81.9855 44.1542 81.7032 43.7319C81.4209 43.3096 81.0389 42.9634 80.5909 42.724C80.1428 42.4846 79.6427 42.3594 79.1347 42.3594Z" fill="#E8451E"/>
<path fill-rule="evenodd" clip-rule="evenodd" d="M84.4993 44.7663C84.6098 44.4053 84.808 44.0773 85.0762 43.8116C85.2513 43.6344 85.46 43.4936 85.6899 43.3975C85.9199 43.3015 86.1666 43.252 86.4159 43.252C86.6651 43.252 86.9118 43.3015 87.1418 43.3975C87.3718 43.4936 87.5804 43.6344 87.7556 43.8116C88.022 44.0824 88.2258 44.4082 88.3526 44.7663H84.4993ZM88.3843 43.18C88.1292 42.9187 87.8241 42.7115 87.4871 42.5707C87.1501 42.43 86.7883 42.3586 86.4231 42.3609C86.0574 42.3548 85.6943 42.4244 85.3568 42.5654C85.0193 42.7064 84.7146 42.9156 84.4618 43.18C83.3947 44.3337 83.4077 45.5753 83.8288 46.8285C84.0172 47.3627 84.3858 47.8145 84.8714 48.1062C85.3653 48.4142 85.9411 48.5651 86.5226 48.5388C87.2326 48.5126 87.9312 48.3526 88.5819 48.0673C88.639 48.0468 88.6912 48.0148 88.7356 47.9734C88.7799 47.932 88.8152 47.882 88.8395 47.8265C88.8638 47.7709 88.8766 47.711 88.8769 47.6503C88.8772 47.5897 88.8652 47.5296 88.8415 47.4738C88.8178 47.418 88.783 47.3676 88.7391 47.3257C88.6953 47.2838 88.6434 47.2513 88.5865 47.2302C88.5297 47.2091 88.4691 47.1998 88.4086 47.2028C88.348 47.2059 88.2887 47.2213 88.2343 47.2481C87.6903 47.4979 87.1021 47.6371 86.5038 47.6577C86.0945 47.6723 85.6897 47.5692 85.3372 47.3606C85.0246 47.1477 84.7826 46.8465 84.6421 46.4954C84.547 46.2302 84.4807 45.9556 84.4445 45.6763H88.5516C88.7751 45.6763 89.5077 45.7253 89.1284 44.4721C88.9922 43.985 88.7352 43.5401 88.3814 43.1786L88.3843 43.18Z" fill="#E8451E"/>
<path fill-rule="evenodd" clip-rule="evenodd" d="M91.2772 44.7663C91.387 44.405 91.5853 44.0768 91.854 43.8116C92.0293 43.6343 92.238 43.4935 92.4681 43.3974C92.6982 43.3013 92.9451 43.2518 93.1944 43.2518C93.4438 43.2518 93.6906 43.3013 93.9207 43.3974C94.1508 43.4935 94.3596 43.6343 94.5349 43.8116C94.8008 44.0824 95.0041 44.4083 95.1304 44.7663H91.2772ZM96.0044 45.232V44.9061C95.9841 44.7594 95.9513 44.6146 95.9063 44.4735C95.7716 43.9848 95.515 43.5382 95.1607 43.1756C94.906 42.9142 94.6011 42.7069 94.2644 42.5662C93.9276 42.4254 93.5659 42.3541 93.2009 42.3565C92.8352 42.3503 92.4721 42.4199 92.1346 42.5609C91.7971 42.7019 91.4924 42.9112 91.2397 43.1756C90.1725 44.3293 90.184 45.5709 90.6066 46.8241C90.7946 47.3585 91.1634 47.8105 91.6492 48.1018C92.1431 48.4098 92.7189 48.5607 93.3004 48.5344C94.0104 48.5082 94.7091 48.3482 95.3597 48.0629C95.4168 48.0424 95.4691 48.0105 95.5134 47.9691C95.5577 47.9276 95.5931 47.8776 95.6174 47.8221C95.6417 47.7665 95.6544 47.7066 95.6547 47.646C95.6551 47.5853 95.643 47.5253 95.6193 47.4694C95.5957 47.4136 95.5608 47.3632 95.517 47.3213C95.4732 47.2794 95.4212 47.2469 95.3644 47.2258C95.3075 47.2047 95.247 47.1954 95.1864 47.1985C95.1259 47.2016 95.0666 47.217 95.0122 47.2438C94.4682 47.4935 93.8799 47.6328 93.2817 47.6533C92.8724 47.6679 92.4675 47.5648 92.115 47.3562C91.8021 47.1437 91.56 46.8424 91.4199 46.491C91.325 46.2257 91.2583 45.9512 91.2209 45.6719H95.3294C95.4924 45.6733 95.925 45.6993 96 45.232H96.0044Z" fill="#E8451E"/>
<path fill-rule="evenodd" clip-rule="evenodd" d="M61.0307 60.064H56.393V53.3251H60.575C60.6468 53.3246 60.7186 53.3285 60.7899 53.3366C61.4273 53.4073 64.2105 53.889 64.2105 56.8741C64.2105 60.0611 61.0278 60.0611 61.0278 60.0611L61.0307 60.064ZM60.2116 50.7567H53.7828V67.9421H56.393V62.8126H60.4914C61.8668 62.826 63.2206 62.4693 64.411 61.7801C65.817 60.948 67.2216 59.4814 67.2216 56.9462C67.2216 54.5682 65.9872 53.0598 64.6749 52.1267C63.3652 51.2179 61.8056 50.7382 60.2116 50.7538V50.7567Z" fill="#E8451E"/>
<path fill-rule="evenodd" clip-rule="evenodd" d="M73.6837 65.5756C72.9189 65.5756 72.1714 65.3489 71.5355 64.9242C70.8996 64.4995 70.4038 63.8958 70.1109 63.1894C69.818 62.483 69.7411 61.7056 69.8899 60.9555C70.0386 60.2054 70.4064 59.5163 70.9468 58.9751C71.4871 58.434 72.1757 58.0652 72.9256 57.9153C73.6755 57.7654 74.4529 57.8412 75.1598 58.133C75.8666 58.4249 76.471 58.9197 76.8967 59.555C77.3224 60.1903 77.5502 60.9375 77.5513 61.7022V61.7123C77.5506 62.7374 77.1427 63.7203 76.4174 64.4448C75.6921 65.1693 74.7088 65.576 73.6837 65.5756ZM77.5513 55.7262V56.9361C76.6493 56.204 75.5584 55.7425 74.4049 55.605C73.2513 55.4675 72.0825 55.6596 71.0337 56.1592C69.9849 56.6587 69.0991 57.4452 68.4789 58.4275C67.8588 59.4098 67.5296 60.5477 67.5296 61.7094C67.5296 62.8711 67.8588 64.009 68.4789 64.9913C69.0991 65.9736 69.9849 66.7601 71.0337 67.2596C72.0825 67.7592 73.2513 67.9513 74.4049 67.8138C75.5584 67.6763 76.6493 67.2148 77.5513 66.4827V67.8513H80.1586V55.7262H77.5513Z" fill="#E8451E"/>
<path fill-rule="evenodd" clip-rule="evenodd" d="M81.3325 55.5604H84.8195L88.9107 63.3909L92.8577 55.5604H96V55.582L86.6293 73.0241H83.5591L87.1369 66.5419L81.3325 55.5604Z" fill="#E8451E"/>
</g>
</g>
<rect x="1" y="1" width="110" height="110" rx="9" stroke="black" stroke-opacity="0.1" stroke-width="2"/>
<defs>
<clipPath id="clip0_752_319">
<rect x="2" y="2" width="108" height="108" rx="8" fill="white"/>
</clipPath>
<clipPath id="clip1_752_319">
<rect width="80" height="35.0241" fill="white" transform="translate(16 38)"/>
</clipPath>
</defs>
</svg>
